Coordinates
version=1
nRows=21
nColumns=22
inDegrees=yes

Units are S.I. units (second, meters, Newtons, ...)
If the header above contains a line with 'inDegrees', this indicates whether rotational values are in degrees (yes) or radians (no).

endheader
time	pelvis_tilt	pelvis_list	pelvis_rotation	pelvis_tx	pelvis_ty	pelvis_tz	hip_flexion_r	hip_adduction_r	hip_rotation_r	knee_angle_r	ankle_angle_r	subtalar_angle_r	hip_flexion_l	hip_adduction_l	hip_rotation_l	knee_angle_l	ankle_angle_l	subtalar_angle_l	lumbar_extension	lumbar_bending	lumbar_rotation
      0.01000000	      5.48008891	     -2.68047608	      7.61558322	     -1.39886166	      0.95662709	      0.02722198	     -6.18064561	      5.13154312	    -11.37823164	     -6.64252726	      8.19167556	      0.98962150	     -1.69099177	     -4.27724234	     -9.40728076	    -15.33256585	     19.58099694	     -6.73224092	    -10.58647429	      4.63116311	    -10.68455004
      0.02000000	      5.52067356	     -2.68874524	      7.62165009	     -1.39909985	      0.95668374	      0.02718440	     -6.20587405	      5.14158615	    -11.35209191	     -6.64551440	      8.21429635	      0.99244119	     -1.70373945	     -4.28743855	     -9.37966418	    -15.35533500	     19.56777080	     -6.74745719	    -10.62382354	      4.64248593	    -10.72958478
      0.03000000	      5.55534363	     -2.69040406	      7.61386353	     -1.39935527	      0.95673442	      0.02715514	     -6.21747924	      5.13993566	    -11.35003156	     -6.66083781	      8.21705525	      0.99393571	     -1.71058148	     -4.28856295	     -9.37484933	    -15.38205230	     19.56946493	     -6.75827079	    -10.64972315	      4.64220217	    -10.75654323
      0.04000000	      5.59225686	     -2.69124071	      7.59972954	     -1.39964399	      0.95679307	      0.02713793	     -6.22176685	      5.13557305	    -11.34903438	     -6.69155456	      8.21694461	      0.99527657	     -1.71595498	     -4.28964735	     -9.37574287	    -15.41428743	     19.56995893	     -6.76888271	    -10.67930478	      4.63973541	    -10.78018441
      0.05000000	      5.64610905	     -2.68532017	      7.57711648	     -1.39993642	      0.95687891	      0.02715104	     -6.23769780	      5.12532486	    -11.36789809	     -6.73569700	      8.22559563	      0.99899139	     -1.73918328	     -4.28949815	     -9.40686613	    -15.45175625	     19.57161316	     -6.79496236	    -10.72930079	      4.62429472	    -10.78763686
      0.06000000	      5.68857609	     -2.67506201	      7.54268853	     -1.40025022	      0.95695923	      0.02714024	     -6.23833218	      5.10449486	    -11.35395851	     -6.78338268	      8.22397421	      0.99974486	     -1.75454237	     -4.27496814	     -9.41739372	    -15.48257037	     19.56973727	     -6.80543231	    -10.76958950	      4.61476862	    -10.79291185
      0.07000000	      5.76790353	     -2.64295808	      7.46478914	     -1.40049070	      0.95710977	      0.02720765	     -6.28050091	      5.06015831	    -11.34719888	     -6.84043807	      8.25375479	      1.00103407	     -1.84445876	     -4.24377457	     -9.51741061	    -15.47390065	     19.55265338	     -6.84253399	    -10.85037883	      4.56960270	    -10.72701984
      0.08000000	      5.84877033	     -2.60918201	      7.38807765	     -1.40074590	      0.95726922	      0.02727908	     -6.32756364	      5.01655041	    -11.29902604	     -6.88884878	      8.26789670	      0.99645395	     -1.93789950	     -4.20754434	     -9.57891812	    -15.46034052	     19.52966807	     -6.86900684	    -10.93735850	      4.52262758	    -10.66450146
      0.09000000	      5.89540522	     -2.59678906	      7.34296376	     -1.40105167	      0.95736449	      0.02729325	     -6.33078406	      4.99426046	    -11.27005309	     -6.93868336	      8.26252898	      0.99346033	     -1.96012209	     -4.19042816	     -9.58079849	    -15.49145089	     19.52187397	     -6.87421857	    -10.98568866	      4.50719153	    -10.64819422
      0.10000000	      5.98077107	     -2.56644642	      7.24410539	     -1.40128289	      0.95753319	      0.02739977	     -6.37453963	      4.95081778	    -11.23557760	     -7.00175053	      8.29076905	      0.98222743	     -2.07056705	     -4.16031787	     -9.69728836	    -15.46466268	     19.49172604	     -6.90343899	    -11.07826686	      4.45813316	    -10.54471915
      0.11000000	      6.02268126	     -2.56231128	      7.21068561	     -1.40161600	      0.95761547	      0.02741901	     -6.37134164	      4.94008927	    -11.20754251	     -7.04810148	      8.28713107	      0.97903124	     -2.07851186	     -4.15469212	     -9.68163762	    -15.50534871	     19.48484141	     -6.90733754	    -11.12581034	      4.44544528	    -10.53060593
      0.12000000	      6.08049110	     -2.55954249	      7.14962501	     -1.40192915	      0.95772065	      0.02748546	     -6.37431133	      4.92782332	    -11.19526692	     -7.11592963	      8.30593016	      0.96990686	     -2.11778327	     -4.15605087	     -9.74755046	    -15.53034046	     19.47292372	     -6.93161387	    -11.19430161	      4.42657568	    -10.46907345
      0.13000000	      6.11412616	     -2.56320560	      7.12439176	     -1.40227169	      0.95778325	      0.02749150	     -6.36002430	      4.92531566	    -11.17235538	     -7.16363744	      8.30362858	      0.96762210	     -2.11347336	     -4.15887408	     -9.73122251	    -15.57278302	     19.46951251	     -6.93601556	    -11.23308485	      4.42032785	    -10.46545335
      0.14000000	      6.14740973	     -2.57760059	      7.08796906	     -1.40261190	      0.95783594	      0.02752354	     -6.33144170	      4.93163130	    -11.17029157	     -7.23578081	      8.31494228	      0.96112977	     -2.10484061	     -4.17836283	     -9.76801082	    -15.62441804	     19.47132361	     -6.95778703	    -11.27486410	      4.42018115	    -10.43423410
      0.15000000	      6.17575579	     -2.58556802	      7.06517172	     -1.40292209	      0.95788496	      0.02751299	     -6.31033424	      4.93282657	    -11.14799906	     -7.29224589	      8.30973698	      0.95761288	     -2.09870508	     -4.18464531	     -9.75802557	    -15.66333423	     19.47136707	     -6.96365898	    -11.30305173	      4.41882350	    -10.43928395
      0.16000000	      6.19641907	     -2.60575856	      7.02898131	     -1.40321938	      0.95791235	      0.02753540	     -6.26750237	      4.94379341	    -11.14824282	     -7.37408178	      8.30890758	      0.94079280	     -2.07997303	     -4.20879028	     -9.80230845	    -15.71352617	     19.48134687	     -6.99018062	    -11.32361137	      4.42595216	    -10.40800980
      0.17000000	      6.22119745	     -2.61475878	      7.01153669	     -1.40349879	      0.95795023	      0.02750963	     -6.24433300	      4.94682563	    -11.12115733	     -7.43451234	      8.29868949	      0.93257026	     -2.07582716	     -4.21545398	     -9.79528980	    -15.74298615	     19.48285600	     -6.99616181	    -11.34503550	      4.42671742	    -10.42128788
      0.18000000	      6.24510098	     -2.62807695	      6.99057131	     -1.40377055	      0.95798302	      0.02749273	     -6.21584542	      4.95380972	    -11.10318632	     -7.50482944	      8.28380670	      0.91825127	     -2.07089050	     -4.22811023	     -9.80367770	    -15.77335209	     19.48429049	     -7.00572359	    -11.36652009	      4.43343728	    -10.41958890
      0.19000000	      6.26609751	     -2.64229033	      6.96924197	     -1.40403564	      0.95801105	      0.02747738	     -6.18538536	      4.96117233	    -11.08829483	     -7.57277490	      8.26771127	      0.89884015	     -2.06365559	     -4.24292192	     -9.82385160	    -15.80196799	     19.48822705	     -7.01558322	    -11.38300072	      4.44253824	    -10.41476923
      0.20000000	      6.26958189	     -2.66528963	      6.93729566	     -1.40429593	      0.95800844	      0.02749220	     -6.13524645	      4.97545683	    -11.07949091	     -7.63688264	      8.25224937	      0.84317489	     -2.02974781	     -4.27084928	     -9.88949486	    -15.84767248	     19.50828483	     -7.03192733	    -11.37756190	      4.45554905	    -10.38155111
      0.21000000	      6.28797713	     -2.67247269	      6.92755938	     -1.40457370	      0.95803783	      0.02747032	     -6.11532047	      4.97907687	    -11.05500005	     -7.67857924	      8.24493660	      0.83231885	     -2.02227536	     -4.27667474	     -9.88565034	    -15.86621493	     19.50840431	     -7.03146347	    -11.39272517	      4.45957596	    -10.39978468
